<?xml version="1.0" encoding="utf-8"?>
<!-- Generator: Adobe Illustrator 16.0.0, SVG Export Plug-In . SVG Version: 6.00 Build 0)  -->
<!DOCTYPE svg PUBLIC "-//W3C//DTD SVG 1.1//EN" "http://www.w3.org/Graphics/SVG/1.1/DTD/svg11.dtd">
<svg version="1.1" xmlns="http://www.w3.org/2000/svg" xmlns:xlink="http://www.w3.org/1999/xlink" x="0px" y="0px" width="200px"
	 height="200px" viewBox="0 0 200 200" enable-background="new 0 0 200 200" xml:space="preserve">
<g id="Layer_3">
</g>
<g id="Layer_1" display="none">
	<path display="inline" fill="#FF876F" d="M95.445,169V65.186h18.875V169H95.445z"/>
	<rect x="95.445" y="28.334" display="inline" fill="#FF876F" width="19.222" height="19.667"/>
</g>
<g id="Layer_2" display="none">
	<g display="inline">
		<g>
			<polygon fill="#97CED5" points="118.24,124.74 85.231,124.74 85.231,109.689 19.844,109.689 19.844,162.213 27.432,162.213 
				183.631,162.213 183.631,154.63 183.631,109.689 118.24,109.689 			"/>
		</g>
		<g>
			<path fill="#97CED5" d="M176.023,57.183H125.07c0,0,0-13.647,0-16.485c0-2.826-1.826-2.485-1.826-2.485H75.728
				c0,0-2.006,0.237-2.006,2.57c0,2.333,0,16.394,0,16.394l-53.878,0.49v7.112v33.857h163.787V57.334L176.023,57.183z
				 M81.502,57.183V43.949h35.802v13.234H81.502z"/>
		</g>
		<g>
			<rect x="90.896" y="109.695" fill="#97CED5" width="21.692" height="9.862"/>
		</g>
	</g>
</g>
<g id="Layer_4" display="none">
	<path display="inline" fill="#948CFA" d="M57.366,113.158v23.087c0,0,19.58,21.648,47.126,21.648
		c34.646,0,47.116-21.648,47.116-21.648V111.2l-40.677,23.773c-2.906,1.698-6.494,1.817-9.505,0.306L57.366,113.158z"/>
	<path display="inline" fill="#948CFA" d="M178.304,71.178l-70.048-35.052L104.487,34L31.163,75.853l-12.496,7.481l13.052,10.009
		l-0.15,35.793c-3.498,1.227-6.002,4.578-6.002,8.481c0,2.896,1.368,5.472,3.501,7.136c-0.675,4.939-2.981,8.497-5.711,11.042
		c-2.184,2.03-3.342,4.941-3.15,7.926c0.19,2.976,1.708,5.722,4.143,7.456l1.242,0.893c2.3,1.642,5.196,2.233,7.962,1.602
		c2.765-0.637,5.13-2.389,6.507-4.85c4.76-8.508,2.455-19.555,0.877-24.852c1.627-1.623,2.64-3.877,2.64-6.353
		c0-3.888-2.475-7.209-5.937-8.462l0.145-34.18l53.093-18.387c0.461-2.25,2.735-4.324,2.735-4.324
		c-0.174,0.612,0.17,8.026,11.4,8.026c6.453,0,11.673-2.059,11.673-6.267c0-0.768-0.18-1.604-0.517-2.466
		c1.818,2.235,2.901,4.759,2.901,6.829c0.011,4.896-6.073,7.291-13.567,7.291c-5.08,0-10.146-1.063-12.881-3.267L43.712,99.351
		l61.045,30.557c3.001,1.502,0.688,1.584,3.573-0.114L193,79"/>
</g>
<g id="Layer_6" display="none">
	
		<rect x="46.212" y="40.579" display="inline" fill="#FEC367" stroke="#FFFFFF" stroke-miterlimit="10" width="126.351" height="134.797"/>
</g>
<g id="Layer_13" display="none">
	<path display="inline" fill="#FEC367" d="M164.473,147.806l-40.761-50.079l-46.795,6.792l-38.295,50.29l20.275-7.655l7.959-2.604
		l5.027,24.644l0,0l30.221-51.508l25.271,36.823l9.686,14.685l3.228-22.935"/>
	<circle display="inline" fill="#FEC367" cx="102.872" cy="70.779" r="45.918"/>
</g>
<g id="Layer_5" display="none">
	<path display="inline" fill="#FFFFFF" stroke="#FEC367" stroke-miterlimit="10" d="M152.972,133.011
		c0-8.761-7.126-15.885-15.886-15.885c-8.761,0-15.885,7.124-15.885,15.885c0,8.76,7.124,15.884,15.885,15.884
		C145.846,148.895,152.972,141.771,152.972,133.011z M137.086,143.6c-5.841,0-10.591-4.749-10.591-10.589
		c0-5.841,4.75-10.59,10.591-10.59c5.84,0,10.59,4.749,10.59,10.59C147.676,138.851,142.926,143.6,137.086,143.6z"/>
	<path display="inline" fill="#FFFFFF" stroke="#FEC367" stroke-miterlimit="10" d="M70.619,144.244
		c-2.621-5.241-3.208-9.942-1.578-12.583c0.868-1.405,2.383-2.117,4.506-2.117c1.262,0,1.734,0.434,2.031,0.857
		c1.972,2.843,0.098,11.503-1.864,16.745c-0.437,1.167,0,2.48,1.048,3.155c1.043,0.67,2.422,0.525,3.304-0.354
		c1.131-1.127,2.356-2.253,3.423-3.166v1.295c0,1.069,0.644,2.035,1.634,2.443c0.99,0.412,2.126,0.186,2.886-0.572
		c1.21-1.206,2.612-2.391,3.794-3.242c-0.033,0.065-0.064,0.129-0.096,0.189c-0.405,0.821-0.36,1.795,0.123,2.573
		c0.483,0.779,1.334,1.255,2.25,1.255h11.976v-2.556v-2.272l-8.277-0.466c0.214-1.261,0.162-2.541-0.477-3.574
		c-0.674-1.093-1.85-1.721-3.221-1.721c-1.637,0-3.562,0.995-5.319,2.229c-0.136-1.155-0.818-2.105-1.856-2.534
		c-0.707-0.291-1.618-0.673-3.828,0.654c0.871-4.562,1.125-9.819-1.146-13.098c-0.993-1.432-2.904-3.137-6.383-3.137
		c-3.966,0-7.167,1.644-9.012,4.631c-2.64,4.272-2.15,10.734,1.35,17.732"/>
	
		<rect x="64.209" y="63.551" display="inline" fill="#FFFFFF" stroke="#FEC367" stroke-miterlimit="10" width="31.184" height="3.801"/>
	
		<rect x="99.344" y="63.551" display="inline" fill="#FFFFFF" stroke="#FEC367" stroke-miterlimit="10" width="24.486" height="3.801"/>
	
		<rect x="126.96" y="63.551" display="inline" fill="#FFFFFF" stroke="#FEC367" stroke-miterlimit="10" width="18.77" height="3.801"/>
	
		<rect x="64.209" y="78.247" display="inline" fill="#FFFFFF" stroke="#FEC367" stroke-miterlimit="10" width="21.28" height="3.801"/>
	
		<rect x="87.608" y="78.247" display="inline" fill="#FFFFFF" stroke="#FEC367" stroke-miterlimit="10" width="39.19" height="3.801"/>
	
		<rect x="130.529" y="78.247" display="inline" fill="#FFFFFF" stroke="#FEC367" stroke-miterlimit="10" width="17.147" height="3.801"/>
	
		<rect x="115.865" y="107.978" display="inline" fill="#FFFFFF" stroke="#FEC367" stroke-miterlimit="10" width="31.185" height="3.801"/>
	
		<rect x="87.429" y="107.978" display="inline" fill="#FFFFFF" stroke="#FEC367" stroke-miterlimit="10" width="24.486" height="3.801"/>
	
		<rect x="65.529" y="107.978" display="inline" fill="#FFFFFF" stroke="#FEC367" stroke-miterlimit="10" width="18.77" height="3.801"/>
	
		<rect x="125.77" y="93.281" display="inline" fill="#FFFFFF" stroke="#FEC367" stroke-miterlimit="10" width="21.28" height="3.802"/>
	
		<rect x="84.461" y="93.281" display="inline" fill="#FFFFFF" stroke="#FEC367" stroke-miterlimit="10" width="39.189" height="3.802"/>
	
		<rect x="63.582" y="93.281" display="inline" fill="#FFFFFF" stroke="#FEC367" stroke-miterlimit="10" width="17.147" height="3.802"/>
	<polyline display="inline" fill="#FEC367" stroke="#FFFFFF" stroke-width="4" stroke-miterlimit="10" points="122.478,148.396 
		113.667,162.001 120.5,162.834 122.478,167.334 131.457,153.001 	"/>
	<polyline display="inline" fill="#FEC367" stroke="#FFFFFF" stroke-width="4" stroke-miterlimit="10" points="142.014,154.185 
		149.927,168.33 153.855,162.678 158.758,163.031 150.279,148.396 	"/>
</g>
<g id="Layer_7">
	<rect x="73.856" y="140.133" fill="#91FAC8" width="51.242" height="22.774"/>
	<path fill="#91FAC8" d="M23.771,45.351v94.782h152.026V45.351H23.771z M165.531,130.511H34.578V55h130.954V130.511z"/>
	<rect x="56.176" y="159.878" fill="#91FAC8" width="88.852" height="13.852"/>
</g>
<g id="Layer_8" display="none">
	<g display="inline">
		<path fill="#EEF1A0" d="M107.33,22.406l-4.024,5.934c28.537,3.627,52.584,30.344,52.584,59.853
			c0,31.999-29.496,58.037-61.494,58.037c-21.808,0-40.837-12.096-50.752-29.923l-3.918,5.779
			c11.954,18.473,47.896,38.806,79.146,25.968c32.99-13.553,41.535-42.15,42.737-54.392
			C164.788,61.267,138.132,28.452,107.33,22.406z"/>
	</g>
	<g display="inline">
		<path fill="#EEF1A0" d="M47.173,91.243c-0.006-0.098-0.013-0.196-0.018-0.293C47.161,91.047,47.166,91.145,47.173,91.243z"/>
		<path fill="#EEF1A0" d="M47.09,87.253c-0.011,0.571-0.021,1.142-0.01,1.708C47.073,88.394,47.077,87.824,47.09,87.253z"/>
		<path fill="#EEF1A0" d="M102.255,41.34c0.005,0,0.01,0.001,0.015,0.002C102.265,41.341,102.26,41.341,102.255,41.34z"/>
		<path fill="#EEF1A0" d="M47.104,86.261c-0.001,0.031,0,0.062-0.001,0.093c0.027-0.623,0.066-1.246,0.118-1.867
			C47.175,85.076,47.128,85.665,47.104,86.261z"/>
		<path fill="#EEF1A0" d="M140.833,71.885c-0.08-0.211-0.161-0.421-0.243-0.63C140.671,71.464,140.754,71.674,140.833,71.885z"/>
		<path fill="#EEF1A0" d="M141.679,74.347c-0.14-0.445-0.287-0.886-0.44-1.325C141.39,73.461,141.541,73.901,141.679,74.347z"/>
		<path fill="#EEF1A0" d="M141.817,74.806c1.464,4.885,2.161,10.083,1.956,15.448c0.002-0.042,0.007-0.083,0.009-0.126
			C143.995,84.801,143.286,79.649,141.817,74.806z"/>
		<path fill="#EEF1A0" d="M136.205,107.529l-7.946-0.317l-2.905-6.957c0,0-4.862-7.814-5.212-8.998
			c-0.353-1.181,2.996-5.33,2.996-5.33l-1.614-9.409l-2.062-8.258l-7.078-2.231l-8.831,1.595l-6.175-5.31l-3.448-4.422l0.513-12.828
			l6.397-3.886c-1.158-0.128-2.324-0.231-3.506-0.278C71.295,39.859,49.27,59.157,47.23,84.345c0.184-2.118,0.512-4.213,0.96-6.222
			l2.782-3.001l7.018,0.282l3.95,0.158l5.842-3.28l1.908,7.202l-5.05,5.437L53.974,87.96l-3.295,5.469l5.843,4.971l6.185,1.935
			l4.063,8.238l2.368-15.251l3.261-4.599l7.492,6.749l5.221-2.371l-0.344,8.584l9.943,2.279l-5.579,5.826l-10.091-0.403l5.16,2.845
			l0.651,5.672l-6.14-0.245l-6.798,5.145l-3.108,4.861c7.125,4.619,15.588,7.454,24.745,7.82
			c21.426,0.856,40.132-12.059,47.227-30.693L136.205,107.529z"/>
	</g>
	<polyline display="inline" fill="#EEF1A0" points="60.561,158.257 139.007,158.257 139,166.331 139,166.331 139.007,174.405 
		60.561,174.405 	"/>
</g>
<g id="Layer_9" display="none">
	<path display="inline" fill="#F1A0D3" d="M160.246,170.689c0,0-1.016-4.727-1.413-5.296c-7.297-10.465-15.043-19.18-36.646-23.262
		c-1.364-0.258-0.359-3.533-0.359-3.533c14.802,4.9,17.98-2.541,28.159-14.336c1.877-2.175-2.307-4.438-2.307-4.438
		s-9.056,1.86-12.734-16.198c-1.396-6.856,6.739-17.087,4.945-30.197c-1.794-13.109-7.333-51.912-37.544-50.941
		c-30.21,0.97-39.592,31.392-40.492,43.218c-0.9,11.826,0.453,29.963,4.507,35.17c0,0-4.239,14.782-7.356,16.583
		c-3.117,1.801-9.946,2.53-8.178,6.8c3.88,9.367,17.583,16.216,22.885,15.396c5.303-0.819,5.303-0.819,5.303-0.819v3.223
		c0,0-37.541,6.361-39.8,28.631H160.246z"/>
</g>
<g id="Layer_10" display="none">
	<circle display="inline" fill="#F1A0D3" cx="104.176" cy="77.783" r="41.554"/>
</g>
<g id="Layer_11" display="none">
	<path display="inline" fill="#C3E86A" d="M152.883,65.039c-0.043-1.007-0.872-1.801-1.88-1.801H93.537l-16.77-15.553
		c-0.347-0.324-0.804-0.503-1.278-0.503H49.141c-0.52,0-1.017,0.216-1.373,0.595L32.721,63.828c-0.347,0.37-0.529,0.864-0.507,1.37
		l3.764,85.822c0.043,1.006,0.872,1.799,1.879,1.799h116.91c0.514,0,1.005-0.211,1.361-0.58c0.354-0.371,0.54-0.871,0.521-1.385
		L152.883,65.039z"/>
	<path display="inline" fill="#FFFFFF" d="M147.729,78.274L38.154,81.911c-1.039,0.035-1.853,0.904-1.818,1.943l2.138,64.441
		c0.034,1.039,0.904,1.852,1.943,1.816l109.575-3.635c1.039-0.035,1.853-0.904,1.816-1.943l-2.138-64.44
		C149.636,79.055,148.768,78.241,147.729,78.274z"/>
	<path display="inline" fill="#FFFFFF" d="M152.914,71.376L43.292,69.714c-1.04-0.016-1.894,0.813-1.911,1.853l-0.979,64.467
		c-0.016,1.041,0.814,1.896,1.854,1.91l109.621,1.664c1.039,0.018,1.895-0.813,1.91-1.852l0.979-64.469
		C154.781,72.247,153.953,71.393,152.914,71.376z"/>
	<path display="inline" fill="#FFFFFF" d="M158.608,75.105L49.766,61.954c-1.032-0.125-1.969,0.611-2.094,1.642l-7.735,64.009
		c-0.125,1.033,0.611,1.969,1.642,2.096l108.843,13.15c1.031,0.125,1.969-0.611,2.096-1.643l7.733-64.009
		C160.375,76.168,159.639,75.229,158.608,75.105z"/>
	<path display="inline" fill="#C3E86A" d="M171.253,57.142c-0.357-0.42-0.881-0.661-1.434-0.661h-58.205
		c-0.473,0-0.931,0.178-1.278,0.501l-16.77,15.553H52.909c-0.899,0-1.672,0.637-1.846,1.52l-15.052,76.52
		c-0.109,0.551,0.036,1.123,0.393,1.557c0.357,0.436,0.89,0.688,1.453,0.688h116.91c0.923,0,1.709-0.67,1.858-1.58l15.052-92.574
		C171.766,58.12,171.611,57.563,171.253,57.142z"/>
	<g display="inline">
		<path fill="#C3E86A" d="M36.404,152.131c0.357,0.436,0.89,0.688,1.452,0.688h116.91c0.923,0,1.709-0.67,1.858-1.58l4.371-26.885
			L36.01,150.574C35.901,151.125,36.046,151.697,36.404,152.131z"/>
	</g>
</g>
<g id="Layer_12" display="none">
	<path display="inline" fill="#64AEFF" d="M82.521,62.472l38.131,0.068v3.689v4.179l-38.131-0.07 M121.575,74.272H80.383
		c-18.29,14.215-33.051,61.684-33.051,80.815c0,0,26.21,3.913,54.759,3.913c28.546,0,50.576-6.126,50.576-6.126
		C152.668,133.743,139.868,88.487,121.575,74.272z M80.383,58.538h41.192c0,0,15.46-13.208,10.34-19.938
		c0,0-27.184,9.435-32.953,8.943c-5.769,0.492-27.517-10.818-27.517-10.818C64.062,43.363,80.383,58.538,80.383,58.538z"/>
</g>
<g id="Layer_14" display="none">
	<g display="inline">
		<path fill="#97CED5" d="M102.235,109.037h0.029c1.021,0,2.032-0.297,2.849-0.836l0.222-0.143c0.049-0.031,0.099-0.061,0.15-0.094
			l2.581-2.135l61.615-50.846c-0.129-0.177-0.346-0.297-0.577-0.297H35.023c-0.166,0-0.321,0.06-0.443,0.162l64.464,53.134
			C99.856,108.654,101.016,109.037,102.235,109.037z M34.308,61.892v75.368l46.18-37.305L34.308,61.892z M123.692,100.208
			l46.131,37.071V62.142L123.692,100.208z M109.025,112.309c-1.839,1.508-4.245,2.34-6.771,2.34c-2.536,0-4.939-0.826-6.772-2.328
			l-10.577-8.723l-50.598,40.867v0.129c0,0.391,0.333,0.719,0.726,0.719h134.074c0.386,0,0.716-0.328,0.716-0.721v-0.119
			l-50.554-40.619L109.025,112.309z"/>
	</g>
</g>
</svg>
