<?xml version="1.0" encoding="utf-8"?>
<!-- Generator: Adobe Illustrator 16.0.0, SVG Export Plug-In . SVG Version: 6.00 Build 0)  -->
<!DOCTYPE svg PUBLIC "-//W3C//DTD SVG 1.1//EN" "http://www.w3.org/Graphics/SVG/1.1/DTD/svg11.dtd">
<svg version="1.1" xmlns="http://www.w3.org/2000/svg" xmlns:xlink="http://www.w3.org/1999/xlink" x="0px" y="0px" width="200px"
	 height="200px" viewBox="0 0 200 200" enable-background="new 0 0 200 200" xml:space="preserve">
<g id="Layer_3">
</g>
<g id="Layer_1" display="none">
	<path display="inline" fill="#FF876F" d="M95.445,169V65.186h18.875V169H95.445z"/>
	<rect x="95.445" y="28.334" display="inline" fill="#FF876F" width="19.222" height="19.667"/>
</g>
<g id="Layer_2" display="none">
	<g display="inline">
		<g>
			<polygon fill="#97CED5" points="118.24,124.74 85.231,124.74 85.231,109.689 19.844,109.689 19.844,162.213 27.432,162.213 
				183.631,162.213 183.631,154.63 183.631,109.689 118.24,109.689 			"/>
		</g>
		<g>
			<path fill="#97CED5" d="M176.023,57.183H125.07c0,0,0-13.647,0-16.485c0-2.826-1.826-2.485-1.826-2.485H75.728
				c0,0-2.006,0.237-2.006,2.57c0,2.333,0,16.394,0,16.394l-53.878,0.49v7.112v33.857h163.787V57.334L176.023,57.183z
				 M81.502,57.183V43.949h35.802v13.234H81.502z"/>
		</g>
		<g>
			<rect x="90.896" y="109.695" fill="#97CED5" width="21.692" height="9.862"/>
		</g>
	</g>
</g>
<g id="Layer_4" display="none">
	<path display="inline" fill="#948CFA" d="M57.366,113.158v23.087c0,0,19.58,21.648,47.126,21.648
		c34.646,0,47.116-21.648,47.116-21.648V111.2l-40.677,23.773c-2.906,1.698-6.494,1.817-9.505,0.306L57.366,113.158z"/>
	<path display="inline" fill="#948CFA" d="M178.304,71.178l-70.048-35.052L104.487,34L31.163,75.853l-12.496,7.481l13.052,10.009
		l-0.15,35.793c-3.498,1.227-6.002,4.578-6.002,8.481c0,2.896,1.368,5.472,3.501,7.136c-0.675,4.939-2.981,8.497-5.711,11.042
		c-2.184,2.03-3.342,4.941-3.15,7.926c0.19,2.976,1.708,5.722,4.143,7.456l1.242,0.893c2.3,1.642,5.196,2.233,7.962,1.602
		c2.765-0.637,5.13-2.389,6.507-4.85c4.76-8.508,2.455-19.555,0.877-24.852c1.627-1.623,2.64-3.877,2.64-6.353
		c0-3.888-2.475-7.209-5.937-8.462l0.145-34.18l53.093-18.387c0.461-2.25,2.735-4.324,2.735-4.324
		c-0.174,0.612,0.17,8.026,11.4,8.026c6.453,0,11.673-2.059,11.673-6.267c0-0.768-0.18-1.604-0.517-2.466
		c1.818,2.235,2.901,4.759,2.901,6.829c0.011,4.896-6.073,7.291-13.567,7.291c-5.08,0-10.146-1.063-12.881-3.267L43.712,99.351
		l61.045,30.557c3.001,1.502,0.688,1.584,3.573-0.114L193,79"/>
</g>
<g id="Layer_6" display="none">
	
		<rect x="46.212" y="40.579" display="inline" fill="#FEC367" stroke="#FFFFFF" stroke-miterlimit="10" width="126.351" height="134.797"/>
</g>
<g id="Layer_5" display="none">
	<path display="inline" fill="#FFFFFF" stroke="#FEC367" stroke-miterlimit="10" d="M152.972,133.011
		c0-8.761-7.126-15.885-15.886-15.885c-8.761,0-15.885,7.124-15.885,15.885c0,8.76,7.124,15.884,15.885,15.884
		C145.846,148.895,152.972,141.771,152.972,133.011z M137.086,143.6c-5.841,0-10.591-4.749-10.591-10.589
		c0-5.841,4.75-10.59,10.591-10.59c5.84,0,10.59,4.749,10.59,10.59C147.676,138.851,142.926,143.6,137.086,143.6z"/>
	<path display="inline" fill="#FFFFFF" stroke="#FEC367" stroke-miterlimit="10" d="M70.619,144.244
		c-2.621-5.241-3.208-9.942-1.578-12.583c0.868-1.405,2.383-2.117,4.506-2.117c1.262,0,1.734,0.434,2.031,0.857
		c1.972,2.843,0.098,11.503-1.864,16.745c-0.437,1.167,0,2.48,1.048,3.155c1.043,0.67,2.422,0.525,3.304-0.354
		c1.131-1.127,2.356-2.253,3.423-3.166v1.295c0,1.069,0.644,2.035,1.634,2.443c0.99,0.412,2.126,0.186,2.886-0.572
		c1.21-1.206,2.612-2.391,3.794-3.242c-0.033,0.065-0.064,0.129-0.096,0.189c-0.405,0.821-0.36,1.795,0.123,2.573
		c0.483,0.779,1.334,1.255,2.25,1.255h11.976v-2.556v-2.272l-8.277-0.466c0.214-1.261,0.162-2.541-0.477-3.574
		c-0.674-1.093-1.85-1.721-3.221-1.721c-1.637,0-3.562,0.995-5.319,2.229c-0.136-1.155-0.818-2.105-1.856-2.534
		c-0.707-0.291-1.618-0.673-3.828,0.654c0.871-4.562,1.125-9.819-1.146-13.098c-0.993-1.432-2.904-3.137-6.383-3.137
		c-3.966,0-7.167,1.644-9.012,4.631c-2.64,4.272-2.15,10.734,1.35,17.732"/>
	
		<rect x="64.209" y="63.551" display="inline" fill="#FFFFFF" stroke="#FEC367" stroke-miterlimit="10" width="31.184" height="3.801"/>
	
		<rect x="99.344" y="63.551" display="inline" fill="#FFFFFF" stroke="#FEC367" stroke-miterlimit="10" width="24.486" height="3.801"/>
	
		<rect x="126.96" y="63.551" display="inline" fill="#FFFFFF" stroke="#FEC367" stroke-miterlimit="10" width="18.77" height="3.801"/>
	
		<rect x="64.209" y="78.247" display="inline" fill="#FFFFFF" stroke="#FEC367" stroke-miterlimit="10" width="21.28" height="3.801"/>
	
		<rect x="87.608" y="78.247" display="inline" fill="#FFFFFF" stroke="#FEC367" stroke-miterlimit="10" width="39.19" height="3.801"/>
	
		<rect x="130.529" y="78.247" display="inline" fill="#FFFFFF" stroke="#FEC367" stroke-miterlimit="10" width="17.147" height="3.801"/>
	
		<rect x="115.865" y="107.978" display="inline" fill="#FFFFFF" stroke="#FEC367" stroke-miterlimit="10" width="31.185" height="3.801"/>
	
		<rect x="87.429" y="107.978" display="inline" fill="#FFFFFF" stroke="#FEC367" stroke-miterlimit="10" width="24.486" height="3.801"/>
	
		<rect x="65.529" y="107.978" display="inline" fill="#FFFFFF" stroke="#FEC367" stroke-miterlimit="10" width="18.77" height="3.801"/>
	
		<rect x="125.77" y="93.281" display="inline" fill="#FFFFFF" stroke="#FEC367" stroke-miterlimit="10" width="21.28" height="3.802"/>
	
		<rect x="84.461" y="93.281" display="inline" fill="#FFFFFF" stroke="#FEC367" stroke-miterlimit="10" width="39.189" height="3.802"/>
	
		<rect x="63.582" y="93.281" display="inline" fill="#FFFFFF" stroke="#FEC367" stroke-miterlimit="10" width="17.147" height="3.802"/>
	<polyline display="inline" fill="#FEC367" stroke="#FFFFFF" stroke-width="4" stroke-miterlimit="10" points="122.478,148.396 
		113.667,162.001 120.5,162.834 122.478,167.334 131.457,153.001 	"/>
	<polyline display="inline" fill="#FEC367" stroke="#FFFFFF" stroke-width="4" stroke-miterlimit="10" points="142.014,154.185 
		149.927,168.33 153.855,162.678 158.758,163.031 150.279,148.396 	"/>
</g>
<g id="Layer_7" display="none">
	<rect x="23.771" y="45.351" display="inline" fill="#91FAC8" width="152.026" height="94.782"/>
	<rect x="74.856" y="140.133" display="inline" fill="#91FAC8" width="51.242" height="22.774"/>
	<rect x="33.578" y="55.648" display="inline" fill="#FFFFFF" width="130.954" height="76.863"/>
	<rect x="57.176" y="159.878" display="inline" fill="#91FAC8" width="88.852" height="13.852"/>
</g>
<g id="Layer_8" display="none">
	<g display="inline">
		<path fill="#EEF1A0" d="M107.33,22.406l-4.024,5.934c28.537,3.627,52.584,30.344,52.584,59.853
			c0,31.999-29.496,58.037-61.494,58.037c-21.808,0-40.837-12.096-50.752-29.923l-3.918,5.779
			c11.954,18.473,47.896,38.806,79.146,25.968c32.99-13.553,41.535-42.15,42.737-54.392
			C164.788,61.267,138.132,28.452,107.33,22.406z"/>
	</g>
	
		<ellipse transform="matrix(0.9992 0.04 -0.04 0.9992 3.6013 -3.7443)" display="inline" fill="#EEF1A0" cx="95.443" cy="88.194" rx="48.378" ry="47.328"/>
	<g display="inline">
		<path fill="#FFFFFF" d="M100.859,41.166l-6.417,3.898L93.93,57.892l3.448,4.422l6.175,5.31l8.831-1.595l7.078,2.231l2.062,8.258
			l1.614,9.409c0,0-3.349,4.148-2.996,5.33c0.35,1.184,5.212,8.998,5.212,8.998l2.905,6.957l7.946,0.317l4.637-2.777
			c1.704-4.53,2.728-9.319,2.931-14.406C144.777,65.22,126.083,43.704,100.859,41.166z"/>
		<path fill="#FFFFFF" d="M78.711,117.658l6.14,0.245l-0.651-5.672l-5.16-2.845l10.091,0.403l5.579-5.826l-9.943-2.279l0.344-8.584
			l-5.221,2.371l-7.492-6.749l-3.261,4.599l-2.368,15.251l-4.063-8.238L56.522,98.4l-5.843-4.971l3.295-5.469l10.667-3.039
			l5.05-5.437l-1.908-7.202l-5.842,3.28l-3.95-0.158l-7.018-0.282l-2.782,3.001c-0.598,2.682-0.982,5.517-1.095,8.356
			c-0.685,17.113,8.008,32.51,21.593,41.368l3.226-5.045L78.711,117.658z"/>
	</g>
	<path display="inline" fill="#EEF1A0" d="M147.081,166.331c0,4.459-3.615,8.074-8.074,8.074H60.561
		c-4.459,0-8.074-3.615-8.074-8.074l0,0c0-4.46,3.615-8.074,8.074-8.074h78.446C143.466,158.257,147.081,161.871,147.081,166.331
		L147.081,166.331z"/>
</g>
<g id="Layer_9" display="none">
	<path display="inline" fill="#F1A0D3" d="M160.246,170.689c0,0-1.016-4.727-1.413-5.296c-7.297-10.465-15.043-19.18-36.646-23.262
		c-1.364-0.258-0.359-3.533-0.359-3.533c14.802,4.9,17.98-2.541,28.159-14.336c1.877-2.175-2.307-4.438-2.307-4.438
		s-9.056,1.86-12.734-16.198c-1.396-6.856,6.739-17.087,4.945-30.197c-1.794-13.109-7.333-51.912-37.544-50.941
		c-30.21,0.97-39.592,31.392-40.492,43.218c-0.9,11.826,0.453,29.963,4.507,35.17c0,0-4.239,14.782-7.356,16.583
		c-3.117,1.801-9.946,2.53-8.178,6.8c3.88,9.367,17.583,16.216,22.885,15.396c5.303-0.819,5.303-0.819,5.303-0.819v3.223
		c0,0-37.541,6.361-39.8,28.631H160.246z"/>
</g>
<g id="Layer_10" display="none">
	<circle display="inline" fill="#F1A0D3" cx="104.176" cy="77.783" r="41.554"/>
</g>
<g id="Layer_11">
	<path fill="#C3E86A" d="M155.518,57.332c-0.045-1.057-0.917-1.891-1.974-1.891H93.188L75.574,39.106
		c-0.365-0.339-0.845-0.528-1.343-0.528H46.558c-0.547,0-1.068,0.227-1.442,0.625L29.312,56.061
		c-0.364,0.389-0.556,0.907-0.533,1.439l3.953,90.138c0.046,1.057,0.917,1.89,1.974,1.89h122.791c0.539,0,1.055-0.221,1.429-0.609
		c0.373-0.39,0.569-0.914,0.547-1.453L155.518,57.332z"/>
	<path fill="#FFFFFF" d="M150.104,71.234l-115.086,3.82c-1.091,0.037-1.946,0.949-1.91,2.041l2.246,67.682
		c0.036,1.092,0.95,1.946,2.041,1.909l115.085-3.818c1.092-0.036,1.946-0.949,1.908-2.041l-2.245-67.682
		C152.106,72.054,151.194,71.199,150.104,71.234z"/>
	<path fill="#FFFFFF" d="M155.55,63.989L40.415,62.243c-1.092-0.017-1.989,0.853-2.006,1.946l-1.027,67.709
		c-0.017,1.095,0.854,1.992,1.946,2.007l115.135,1.747c1.091,0.018,1.99-0.854,2.007-1.945l1.027-67.711
		C157.511,64.903,156.642,64.006,155.55,63.989z"/>
	<path fill="#FFFFFF" d="M161.53,67.905L47.214,54.093c-1.084-0.131-2.068,0.642-2.2,1.725l-8.124,67.23
		c-0.131,1.084,0.642,2.067,1.725,2.2l114.317,13.813c1.082,0.131,2.067-0.642,2.201-1.726l8.123-67.229
		C163.387,69.022,162.613,68.036,161.53,67.905z"/>
	<path fill="#C3E86A" d="M174.813,49.039c-0.377-0.441-0.927-0.694-1.506-0.694h-61.134c-0.497,0-0.978,0.188-1.342,0.527
		L93.218,65.207H50.516c-0.944,0-1.756,0.669-1.939,1.595l-15.81,80.369c-0.115,0.578,0.037,1.18,0.412,1.635
		c0.376,0.456,0.936,0.722,1.526,0.722h122.791c0.969,0,1.794-0.702,1.951-1.659l15.81-97.231
		C175.35,50.065,175.188,49.481,174.813,49.039z"/>
	<g>
		<path fill="#C3E86A" d="M33.18,148.806c0.375,0.456,0.935,0.722,1.525,0.722h122.791c0.969,0,1.794-0.702,1.951-1.659
			l4.591-28.236L32.767,147.171C32.652,147.749,32.804,148.351,33.18,148.806z"/>
	</g>
</g>
<g id="Layer_12" display="none">
	<path display="inline" fill="#64AEFF" d="M80.591,52.63l45.612,0.077v4.141v4.692l-45.612-0.078 M127.307,65.878H78.033
		c-21.879,15.958-39.536,69.251-39.536,90.729c0,0,31.353,4.394,65.502,4.394c34.147,0,60.5-6.878,60.5-6.878
		C164.5,132.645,149.189,81.836,127.307,65.878z M78.033,48.214h49.273c0,0,18.493-14.828,12.368-22.384
		c0,0-32.517,10.592-39.418,10.041c-6.9,0.552-32.916-12.145-32.916-12.145C58.509,31.177,78.033,48.214,78.033,48.214z"/>
</g>
</svg>
