<?xml version="1.0" encoding="utf-8"?>
<!-- Generator: Adobe Illustrator 16.0.0, SVG Export Plug-In . SVG Version: 6.00 Build 0)  -->
<!DOCTYPE svg PUBLIC "-//W3C//DTD SVG 1.1//EN" "http://www.w3.org/Graphics/SVG/1.1/DTD/svg11.dtd">
<svg version="1.1" xmlns="http://www.w3.org/2000/svg" xmlns:xlink="http://www.w3.org/1999/xlink" x="0px" y="0px" width="200px"
	 height="200px" viewBox="0 0 200 200" enable-background="new 0 0 200 200" xml:space="preserve">
<g id="Layer_3">
</g>
<g id="Layer_1" display="none">
	<g display="inline">
		<path fill="#FF876F" d="M116.465,36.014c0.215,6.435-4.504,11.583-12.012,11.583c-6.649,0-11.368-5.149-11.368-11.583
			c0-6.648,4.934-11.796,11.797-11.796C111.961,24.218,116.465,29.366,116.465,36.014z M95.445,169V65.186h18.875V169H95.445z"/>
	</g>
</g>
<g id="Layer_2" display="none">
	<g display="inline">
		<g>
			<path fill="#97CED5" d="M118.24,124.74H85.231v-15.051H19.844v44.94c0,4.192,3.396,7.583,7.588,7.583h148.592
				c4.205,0,7.607-3.391,7.607-7.583v-44.94H118.24V124.74z"/>
		</g>
		<g>
			<path fill="#97CED5" d="M176.023,57.183H125.07c0,0,0-13.647,0-16.485c0-2.826-1.826-2.485-1.826-2.485H75.728
				c0,0-2.006,0.237-2.006,2.57c0,2.333,0,16.394,0,16.394h-46.29c-4.191,0.006-7.588,3.391-7.588,7.602v33.857h163.787V64.779
				C183.631,60.568,180.222,57.183,176.023,57.183z M81.502,57.183V43.949h35.802v13.234H81.502z"/>
		</g>
		<g>
			<rect x="90.896" y="109.695" fill="#97CED5" width="21.692" height="9.862"/>
		</g>
	</g>
</g>
<g id="Layer_4" display="none">
	<g display="inline">
		<g>
			<path fill="#948CFA" d="M57.366,113.158v23.087c0,0,19.58,21.648,47.126,21.648c34.646,0,47.116-21.648,47.116-21.648V111.2
				l-40.677,23.773c-2.906,1.698-6.494,1.817-9.505,0.306L57.366,113.158z"/>
			<path fill="#948CFA" d="M105.505,85.678c-5.08,0-10.146-1.063-12.881-3.267L43.712,99.351l58.044,29.055
				c3.001,1.502,6.574,1.388,9.459-0.311l67.634-39.426c3.157-1.838,5.049-5.26,4.944-8.913c-0.109-3.652-2.232-6.944-5.49-8.578
				l-70.048-35.052c-3.002-1.503-6.56-1.388-9.46,0.306L31.163,75.853c-3.157,1.839-5.05,5.261-4.94,8.913
				c0.121,3.647,2.229,6.939,5.496,8.578l-0.15,35.793c-3.498,1.227-6.002,4.578-6.002,8.481c0,2.896,1.368,5.472,3.501,7.136
				c-0.675,4.939-2.981,8.497-5.711,11.042c-2.184,2.03-3.342,4.941-3.15,7.926c0.19,2.976,1.708,5.722,4.143,7.456l1.242,0.893
				c2.3,1.642,5.196,2.233,7.962,1.602c2.765-0.637,5.13-2.389,6.507-4.85c4.76-8.508,2.455-19.555,0.877-24.852
				c1.627-1.623,2.64-3.877,2.64-6.353c0-3.888-2.475-7.209-5.937-8.462l0.145-34.18l53.093-18.387
				c0.461-2.25,2.735-4.324,2.735-4.324c-0.174,0.612,0.17,8.026,11.4,8.026c6.453,0,11.673-2.059,11.673-6.267
				c0-0.768-0.18-1.604-0.517-2.466c1.818,2.235,2.901,4.759,2.901,6.829C119.083,83.283,112.999,85.678,105.505,85.678z"/>
		</g>
	</g>
</g>
<g id="Layer_6" display="none">
	<path display="inline" fill="#FEC367" stroke="#FFFFFF" stroke-miterlimit="10" d="M163.562,161.906
		c0,6.769-5.408,12.256-12.079,12.256H54.237c-6.671,0-12.08-5.487-12.08-12.256V40.471c0-6.769,5.408-12.255,12.08-12.255h97.245
		c6.671,0,12.079,5.487,12.079,12.255V161.906z"/>
</g>
<g id="Layer_5" display="none">
	<path display="inline" fill="#FFFFFF" stroke="#FEC367" stroke-miterlimit="10" d="M110.612,79.242
		c0,1.461,1.183,2.647,2.646,2.647h26.476c1.464,0,2.646-1.186,2.646-2.647c0-1.462-1.183-2.648-2.646-2.648h-26.476
		C111.795,76.594,110.612,77.78,110.612,79.242z"/>
	<path display="inline" fill="#FFFFFF" stroke="#FEC367" stroke-miterlimit="10" d="M126.496,95.127
		c0,1.461,1.185,2.647,2.648,2.647h15.885c1.464,0,2.647-1.187,2.647-2.647c0-1.461-1.184-2.647-2.647-2.647h-15.885
		C127.681,92.479,126.496,93.666,126.496,95.127z"/>
	<path display="inline" fill="#FFFFFF" stroke="#FEC367" stroke-miterlimit="10" d="M123.85,66.004c1.463,0,2.646-1.186,2.646-2.647
		s-1.184-2.647-2.646-2.647h-5.296c-1.464,0-2.646,1.186-2.646,2.647s1.183,2.647,2.646,2.647H123.85z"/>
	<path display="inline" fill="#FFFFFF" stroke="#FEC367" stroke-miterlimit="10" d="M92.08,92.479c-1.464,0-2.648,1.186-2.648,2.647
		c0,1.461,1.184,2.646,2.648,2.646h26.474c1.464,0,2.647-1.186,2.647-2.646c0-1.461-1.184-2.647-2.647-2.647H92.08z"/>
	<path display="inline" fill="#FFFFFF" stroke="#FEC367" stroke-miterlimit="10" d="M65.605,81.889h37.063
		c1.464,0,2.648-1.186,2.648-2.647c0-1.462-1.185-2.648-2.648-2.648H65.605c-1.464,0-2.648,1.186-2.648,2.648
		C62.958,80.703,64.141,81.889,65.605,81.889z"/>
	<path display="inline" fill="#FFFFFF" stroke="#FEC367" stroke-miterlimit="10" d="M65.605,66.004h10.589
		c1.464,0,2.647-1.186,2.647-2.647s-1.183-2.647-2.647-2.647H65.605c-1.464,0-2.648,1.186-2.648,2.647S64.141,66.004,65.605,66.004z
		"/>
	<path display="inline" fill="#FFFFFF" stroke="#FEC367" stroke-miterlimit="10" d="M107.965,60.709h-21.18
		c-1.463,0-2.648,1.187-2.648,2.647c0,1.461,1.185,2.647,2.648,2.647h21.18c1.464,0,2.647-1.186,2.647-2.647
		C110.612,61.896,109.429,60.709,107.965,60.709z"/>
	<path display="inline" fill="#FFFFFF" stroke="#FEC367" stroke-miterlimit="10" d="M152.972,133.011
		c0-8.761-7.126-15.885-15.886-15.885c-8.761,0-15.885,7.124-15.885,15.885c0,8.76,7.124,15.884,15.885,15.884
		C145.846,148.895,152.972,141.771,152.972,133.011z M137.086,143.6c-5.841,0-10.591-4.749-10.591-10.589
		c0-5.841,4.75-10.59,10.591-10.59c5.84,0,10.59,4.749,10.59,10.59C147.676,138.851,142.926,143.6,137.086,143.6z"/>
	<path display="inline" fill="#FFFFFF" stroke="#FEC367" stroke-miterlimit="10" d="M132.309,151.92
		c-1.264-0.73-2.884-0.296-3.617,0.97l-5.7,9.877l-0.904-1.365c-0.458-0.697-1.219-1.137-2.051-1.184l-1.636-0.098l5.796-10.034
		c0.731-1.266,0.297-2.886-0.969-3.616c-1.266-0.734-2.885-0.299-3.619,0.968l-7.935,13.744c-0.458,0.794-0.471,1.771-0.037,2.577
		c0.435,0.809,1.254,1.335,2.174,1.389l4.588,0.273l2.532,3.837c0.491,0.745,1.322,1.189,2.209,1.189h0.082
		c0.913-0.029,1.753-0.53,2.214-1.324l7.845-13.587C134.011,154.271,133.576,152.65,132.309,151.92z"/>
	<path display="inline" fill="#FFFFFF" stroke="#FEC367" stroke-miterlimit="10" d="M153.268,147.22
		c-0.734-1.268-2.357-1.702-3.617-0.968c-1.268,0.729-1.702,2.35-0.972,3.615l5.727,9.909l-1.636,0.099
		c-0.831,0.05-1.591,0.489-2.052,1.184l-0.901,1.365l-5.671-9.827c-0.735-1.266-2.355-1.7-3.619-0.97
		c-1.266,0.731-1.698,2.352-0.968,3.617l7.815,13.536c0.46,0.795,1.3,1.295,2.213,1.324h0.083c0.884,0,1.718-0.444,2.21-1.189
		l2.531-3.833l4.586-0.277c0.918-0.054,1.738-0.58,2.172-1.388c0.436-0.807,0.418-1.783-0.036-2.578L153.268,147.22z"/>
	<path display="inline" fill="#FFFFFF" stroke="#FEC367" stroke-miterlimit="10" d="M65.605,97.774H81.49
		c1.464,0,2.647-1.187,2.647-2.647c0-1.461-1.183-2.647-2.647-2.647H65.605c-1.464,0-2.648,1.186-2.648,2.647
		C62.958,96.588,64.141,97.774,65.605,97.774z"/>
	<path display="inline" fill="#FFFFFF" stroke="#FEC367" stroke-miterlimit="10" d="M65.605,113.658h31.77
		c1.464,0,2.647-1.185,2.647-2.647c0-1.46-1.184-2.647-2.647-2.647h-31.77c-1.464,0-2.648,1.188-2.648,2.647
		C62.958,112.474,64.141,113.658,65.605,113.658z"/>
	<path display="inline" fill="#FFFFFF" stroke="#FEC367" stroke-miterlimit="10" d="M65.885,146.612
		c0.652,1.307,2.243,1.837,3.55,1.186c1.308-0.654,1.84-2.245,1.184-3.554c-2.621-5.241-3.208-9.942-1.578-12.583
		c0.868-1.405,2.383-2.117,4.506-2.117c1.262,0,1.734,0.434,2.031,0.857c1.972,2.843,0.098,11.503-1.864,16.745
		c-0.437,1.167,0,2.48,1.048,3.155c1.043,0.67,2.422,0.525,3.304-0.354c1.131-1.127,2.356-2.253,3.423-3.166v1.295
		c0,1.069,0.644,2.035,1.634,2.443c0.99,0.412,2.126,0.186,2.886-0.572c1.21-1.206,2.612-2.391,3.794-3.242
		c-0.033,0.065-0.064,0.129-0.096,0.189c-0.405,0.821-0.36,1.795,0.123,2.573c0.483,0.779,1.334,1.255,2.25,1.255h10.589
		c1.464,0,2.647-1.186,2.647-2.646s-1.184-2.647-2.647-2.647h-6.891c0.214-1.261,0.162-2.541-0.477-3.574
		c-0.674-1.093-1.85-1.721-3.221-1.721c-1.637,0-3.562,0.995-5.319,2.229c-0.136-1.155-0.818-2.105-1.856-2.534
		c-0.707-0.291-1.618-0.673-3.828,0.654c0.871-4.562,1.125-9.819-1.146-13.098c-0.993-1.432-2.904-3.137-6.383-3.137
		c-3.966,0-7.167,1.644-9.012,4.631C61.896,133.152,62.386,139.614,65.885,146.612z"/>
	<path display="inline" fill="#FFFFFF" stroke="#FEC367" stroke-miterlimit="10" d="M137.087,111.011
		c0-1.46-1.184-2.647-2.647-2.647h-26.475c-1.464,0-2.646,1.188-2.646,2.647c0,1.463,1.183,2.647,2.646,2.647h26.475
		C135.903,113.658,137.087,112.474,137.087,111.011z"/>
</g>
<g id="Layer_7" display="none">
	<g display="inline">
		<path fill="#91FAC8" d="M179.477,124.475c0,9.434-7.648,17.082-17.082,17.082H35.713c-9.434,0-17.081-7.648-17.081-17.082V46.188
			c0-9.433,7.647-17.081,17.081-17.081h126.682c9.434,0,17.082,7.647,17.082,17.081V124.475z"/>
		<path fill="#91FAC8" d="M149.585,164.332c0,4.715-3.824,8.539-8.541,8.539H58.487c-4.717,0-8.54-3.824-8.54-8.539l0,0
			c0-4.719,3.823-8.543,8.54-8.543h82.557C145.761,155.789,149.585,159.613,149.585,164.332L149.585,164.332z"/>
		<rect x="75.568" y="140.133" fill="#91FAC8" width="51.242" height="22.774"/>
		<rect x="32.866" y="46.188" fill="#FFFFFF" width="130.954" height="76.863"/>
	</g>
</g>
<g id="Layer_8">
	<g>
		<path fill="#EEF1A0" d="M107.33,22.406l-4.024,5.934c28.537,3.627,52.584,30.344,52.584,59.853
			c0,31.999-29.496,58.037-61.494,58.037c-21.808,0-40.837-12.096-50.752-29.923l-3.918,5.779
			c11.954,18.473,47.896,38.806,79.146,25.968c32.99-13.553,41.535-42.15,42.737-54.392
			C164.788,61.267,138.132,28.452,107.33,22.406z"/>
	</g>
	
		<ellipse transform="matrix(0.9992 0.04 -0.04 0.9992 3.6013 -3.7443)" fill="#EEF1A0" cx="95.443" cy="88.194" rx="48.378" ry="47.328"/>
	<g>
		<path fill="#FFFFFF" d="M100.859,41.166l-6.417,3.898L93.93,57.892l3.448,4.422l6.175,5.31l8.831-1.595l7.078,2.231l2.062,8.258
			l1.614,9.409c0,0-3.349,4.148-2.996,5.33c0.35,1.184,5.212,8.998,5.212,8.998l2.905,6.957l7.946,0.317l4.637-2.777
			c1.704-4.53,2.728-9.319,2.931-14.406C144.777,65.22,126.083,43.704,100.859,41.166z"/>
		<path fill="#FFFFFF" d="M78.711,117.658l6.14,0.245l-0.651-5.672l-5.16-2.845l10.091,0.403l5.579-5.826l-9.943-2.279l0.344-8.584
			l-5.221,2.371l-7.492-6.749l-3.261,4.599l-2.368,15.251l-4.063-8.238L56.522,98.4l-5.843-4.971l3.295-5.469l10.667-3.039
			l5.05-5.437l-1.908-7.202l-5.842,3.28l-3.95-0.158l-7.018-0.282l-2.782,3.001c-0.598,2.682-0.982,5.517-1.095,8.356
			c-0.685,17.113,8.008,32.51,21.593,41.368l3.226-5.045L78.711,117.658z"/>
	</g>
	<path fill="#EEF1A0" d="M147.081,166.331c0,4.459-3.615,8.074-8.074,8.074H60.561c-4.459,0-8.074-3.615-8.074-8.074l0,0
		c0-4.46,3.615-8.074,8.074-8.074h78.446C143.466,158.257,147.081,161.871,147.081,166.331L147.081,166.331z"/>
</g>
</svg>
