<?xml version="1.0" encoding="utf-8"?>
<!-- Generator: Adobe Illustrator 16.0.0, SVG Export Plug-In . SVG Version: 6.00 Build 0)  -->
<!DOCTYPE svg PUBLIC "-//W3C//DTD SVG 1.1//EN" "http://www.w3.org/Graphics/SVG/1.1/DTD/svg11.dtd">
<svg version="1.1" id="Layer_1" xmlns="http://www.w3.org/2000/svg" xmlns:xlink="http://www.w3.org/1999/xlink" x="0px" y="0px"
	 width="200px" height="200px" viewBox="0 0 200 200" enable-background="new 0 0 200 200" xml:space="preserve">
<g id="Layer_3">
</g>
<g id="Layer_1_1_" display="none">
	<g display="inline">
		<path fill="#FF876F" d="M116.465,36.014c0.215,6.435-4.504,11.583-12.012,11.583c-6.649,0-11.368-5.149-11.368-11.583
			c0-6.648,4.934-11.796,11.797-11.796C111.961,24.218,116.465,29.366,116.465,36.014z M95.445,169V65.186h18.875V169H95.445z"/>
	</g>
</g>
<g id="Layer_4" display="none">
	<path display="inline" fill="#948CFA" d="M57.366,113.158v23.087c0,0,19.58,21.647,47.126,21.647
		c34.646,0,47.115-21.647,47.115-21.647V111.2l-40.676,23.772c-2.906,1.698-6.494,1.817-9.506,0.307L57.366,113.158z"/>
	<path display="inline" fill="#948CFA" d="M178.305,71.178l-70.049-35.052L104.486,34L31.163,75.853l-12.496,7.481l13.052,10.009
		l-0.15,35.793c-3.498,1.228-6.002,4.578-6.002,8.481c0,2.896,1.368,5.472,3.501,7.136c-0.675,4.938-2.981,8.497-5.711,11.042
		c-2.184,2.03-3.342,4.941-3.15,7.926c0.19,2.977,1.708,5.723,4.143,7.456l1.242,0.894c2.3,1.642,5.196,2.232,7.962,1.602
		c2.765-0.637,5.13-2.389,6.507-4.85c4.76-8.508,2.455-19.555,0.877-24.852c1.627-1.623,2.64-3.878,2.64-6.354
		c0-3.889-2.475-7.209-5.937-8.463l0.145-34.179l53.093-18.387c0.461-2.25,2.735-4.324,2.735-4.324
		c-0.174,0.612,0.17,8.026,11.4,8.026c6.453,0,11.674-2.059,11.674-6.267c0-0.768-0.181-1.604-0.518-2.466
		c1.818,2.235,2.9,4.759,2.9,6.829c0.012,4.896-6.072,7.291-13.566,7.291c-5.08,0-10.146-1.063-12.881-3.267L43.712,99.351
		l61.045,30.557c3.001,1.502,0.688,1.584,3.573-0.114L193,79"/>
</g>
<g id="Layer_6" display="none">
	
		<rect x="46.212" y="40.579" display="inline" fill="#FEC367" stroke="#FFFFFF" stroke-miterlimit="10" width="126.351" height="134.797"/>
</g>
<g id="Layer_5" display="none">
	<path display="inline" fill="#FFFFFF" stroke="#FEC367" stroke-miterlimit="10" d="M152.973,133.011
		c0-8.761-7.127-15.885-15.887-15.885c-8.761,0-15.885,7.124-15.885,15.885s7.124,15.884,15.885,15.884
		C145.846,148.895,152.973,141.771,152.973,133.011z M137.086,143.6c-5.841,0-10.591-4.748-10.591-10.589s4.75-10.59,10.591-10.59
		c5.84,0,10.59,4.749,10.59,10.59S142.926,143.6,137.086,143.6z"/>
	<path display="inline" fill="#FFFFFF" stroke="#FEC367" stroke-miterlimit="10" d="M70.619,144.244
		c-2.621-5.241-3.208-9.942-1.578-12.583c0.868-1.405,2.383-2.117,4.506-2.117c1.262,0,1.734,0.435,2.031,0.856
		c1.972,2.844,0.098,11.504-1.864,16.746c-0.437,1.166,0,2.479,1.048,3.154c1.043,0.67,2.422,0.525,3.304-0.354
		c1.131-1.127,2.356-2.254,3.423-3.166v1.295c0,1.068,0.644,2.035,1.634,2.443c0.99,0.412,2.126,0.186,2.886-0.572
		c1.21-1.206,2.612-2.391,3.794-3.242c-0.033,0.064-0.064,0.129-0.096,0.189c-0.405,0.82-0.36,1.795,0.123,2.572
		c0.483,0.779,1.334,1.256,2.25,1.256h11.977v-2.557v-2.271l-8.278-0.467c0.214-1.261,0.162-2.541-0.477-3.574
		c-0.674-1.093-1.85-1.721-3.221-1.721c-1.637,0-3.562,0.995-5.319,2.229c-0.136-1.154-0.818-2.104-1.856-2.533
		c-0.707-0.291-1.618-0.674-3.828,0.654c0.871-4.563,1.125-9.819-1.146-13.099c-0.993-1.432-2.904-3.137-6.383-3.137
		c-3.966,0-7.167,1.644-9.012,4.631c-2.64,4.272-2.15,10.733,1.35,17.731"/>
	
		<rect x="64.209" y="63.551" display="inline" fill="#FFFFFF" stroke="#FEC367" stroke-miterlimit="10" width="31.184" height="3.801"/>
	
		<rect x="99.344" y="63.551" display="inline" fill="#FFFFFF" stroke="#FEC367" stroke-miterlimit="10" width="24.486" height="3.801"/>
	
		<rect x="126.96" y="63.551" display="inline" fill="#FFFFFF" stroke="#FEC367" stroke-miterlimit="10" width="18.771" height="3.801"/>
	
		<rect x="64.209" y="78.247" display="inline" fill="#FFFFFF" stroke="#FEC367" stroke-miterlimit="10" width="21.28" height="3.801"/>
	
		<rect x="87.608" y="78.247" display="inline" fill="#FFFFFF" stroke="#FEC367" stroke-miterlimit="10" width="39.19" height="3.801"/>
	
		<rect x="130.529" y="78.247" display="inline" fill="#FFFFFF" stroke="#FEC367" stroke-miterlimit="10" width="17.146" height="3.801"/>
	
		<rect x="115.865" y="107.979" display="inline" fill="#FFFFFF" stroke="#FEC367" stroke-miterlimit="10" width="31.185" height="3.801"/>
	
		<rect x="87.429" y="107.979" display="inline" fill="#FFFFFF" stroke="#FEC367" stroke-miterlimit="10" width="24.486" height="3.801"/>
	
		<rect x="65.529" y="107.979" display="inline" fill="#FFFFFF" stroke="#FEC367" stroke-miterlimit="10" width="18.77" height="3.801"/>
	
		<rect x="125.77" y="93.281" display="inline" fill="#FFFFFF" stroke="#FEC367" stroke-miterlimit="10" width="21.28" height="3.802"/>
	
		<rect x="84.461" y="93.281" display="inline" fill="#FFFFFF" stroke="#FEC367" stroke-miterlimit="10" width="39.189" height="3.802"/>
	
		<rect x="63.582" y="93.281" display="inline" fill="#FFFFFF" stroke="#FEC367" stroke-miterlimit="10" width="17.147" height="3.802"/>
	<polyline display="inline" fill="#FEC367" stroke="#FFFFFF" stroke-width="4" stroke-miterlimit="10" points="122.479,148.396 
		113.667,162.001 120.5,162.834 122.479,167.334 131.457,153.001 	"/>
	<polyline display="inline" fill="#FEC367" stroke="#FFFFFF" stroke-width="4" stroke-miterlimit="10" points="142.014,154.186 
		149.927,168.33 153.855,162.678 158.758,163.031 150.279,148.396 	"/>
</g>
<g id="Layer_7" display="none">
	<rect x="23.771" y="45.351" display="inline" fill="#91FAC8" width="152.026" height="94.782"/>
	<rect x="74.856" y="140.133" display="inline" fill="#91FAC8" width="51.242" height="22.774"/>
	<rect x="33.578" y="55.648" display="inline" fill="#FFFFFF" width="130.954" height="76.863"/>
	<rect x="57.176" y="159.878" display="inline" fill="#91FAC8" width="88.852" height="13.853"/>
</g>
<g id="Layer_8" display="none">
	<g display="inline">
		<path fill="#EEF1A0" d="M107.33,22.406l-4.023,5.934c28.536,3.627,52.584,30.344,52.584,59.853
			c0,31.999-29.496,58.038-61.495,58.038c-21.808,0-40.837-12.097-50.752-29.924l-3.918,5.779
			c11.954,18.473,47.896,38.807,79.146,25.969c32.989-13.554,41.535-42.15,42.737-54.393
			C164.788,61.267,138.132,28.452,107.33,22.406z"/>
	</g>
	
		<ellipse transform="matrix(0.04 -0.9992 0.9992 0.04 3.4962 180.0321)" display="inline" fill="#EEF1A0" cx="95.44" cy="88.197" rx="47.328" ry="48.378"/>
	<g display="inline">
		<path fill="#FFFFFF" d="M100.859,41.166l-6.417,3.898L93.93,57.892l3.448,4.422l6.175,5.31l8.831-1.595l7.078,2.231l2.062,8.258
			l1.615,9.409c0,0-3.35,4.148-2.996,5.33c0.35,1.184,5.211,8.998,5.211,8.998l2.905,6.957l7.946,0.317l4.637-2.777
			c1.704-4.53,2.729-9.319,2.932-14.406C144.777,65.22,126.083,43.704,100.859,41.166z"/>
		<path fill="#FFFFFF" d="M78.711,117.658l6.14,0.244L84.2,112.23l-5.16-2.845l10.091,0.403l5.579-5.826l-9.943-2.279l0.344-8.583
			l-5.221,2.371l-7.492-6.749l-3.261,4.599l-2.368,15.251l-4.063-8.238L56.522,98.4l-5.843-4.971l3.295-5.469l10.667-3.039
			l5.05-5.437l-1.908-7.202l-5.842,3.28l-3.95-0.158l-7.018-0.282l-2.782,3.001c-0.598,2.682-0.982,5.517-1.095,8.356
			c-0.685,17.113,8.008,32.51,21.593,41.369l3.226-5.046L78.711,117.658z"/>
	</g>
	<path display="inline" fill="#EEF1A0" d="M147.081,166.331c0,4.459-3.615,8.073-8.074,8.073H60.561
		c-4.459,0-8.074-3.614-8.074-8.073l0,0c0-4.46,3.615-8.074,8.074-8.074h78.446C143.466,158.257,147.081,161.871,147.081,166.331
		L147.081,166.331z"/>
</g>
<g id="Layer_9" display="none">
	<path display="inline" fill="#F1A0D3" d="M160.246,170.689c0,0-1.016-4.728-1.413-5.297c-7.297-10.465-15.043-19.18-36.646-23.262
		c-1.364-0.258-0.359-3.533-0.359-3.533c14.802,4.9,17.98-2.541,28.158-14.336c1.878-2.175-2.307-4.438-2.307-4.438
		s-9.056,1.859-12.734-16.198c-1.396-6.856,6.74-17.087,4.945-30.197c-1.793-13.109-7.332-51.912-37.543-50.941
		c-30.21,0.97-39.593,31.392-40.493,43.218s0.453,29.963,4.507,35.17c0,0-4.239,14.782-7.356,16.583
		c-3.117,1.801-9.946,2.529-8.178,6.8c3.88,9.367,17.583,16.216,22.885,15.396c5.303-0.818,5.303-0.818,5.303-0.818v3.223
		c0,0-37.541,6.361-39.8,28.631H160.246L160.246,170.689z"/>
</g>
<g id="Layer_10" display="none">
	<circle display="inline" fill="#F1A0D3" cx="104.176" cy="77.783" r="41.554"/>
</g>
<g id="Layer_11" display="none">
	<path display="inline" fill="#C3E86A" d="M165.799,47.429c-0.053-1.221-1.059-2.183-2.279-2.183H93.844L73.511,26.389
		c-0.421-0.392-0.975-0.61-1.55-0.61H40.014c-0.631,0-1.233,0.262-1.665,0.721L20.104,45.962c-0.42,0.449-0.642,1.047-0.615,1.661
		l4.563,104.057c0.053,1.219,1.058,2.182,2.278,2.182h141.75c0.623,0,1.219-0.256,1.65-0.703c0.43-0.45,0.656-1.057,0.631-1.678
		L165.799,47.429z"/>
	<path display="inline" fill="#FFFFFF" d="M159.549,63.478l-132.856,4.41c-1.259,0.042-2.247,1.096-2.205,2.355l2.593,78.133
		c0.042,1.26,1.096,2.246,2.356,2.204l132.856-4.408c1.26-0.042,2.246-1.097,2.203-2.355l-2.592-78.132
		C161.861,64.424,160.809,63.437,159.549,63.478z"/>
	<path display="inline" fill="#FFFFFF" d="M165.836,55.114L32.922,53.098c-1.261-0.02-2.296,0.985-2.316,2.246L29.42,133.51
		c-0.019,1.264,0.987,2.299,2.247,2.316l132.913,2.018c1.26,0.021,2.297-0.986,2.316-2.246l1.186-78.167
		C168.1,56.169,167.096,55.133,165.836,55.114z"/>
	<path display="inline" fill="#FFFFFF" d="M172.74,59.634L40.771,43.689c-1.251-0.151-2.388,0.741-2.539,1.991l-9.378,77.611
		c-0.151,1.251,0.741,2.387,1.991,2.54l131.969,15.944c1.25,0.15,2.387-0.74,2.541-1.991l9.377-77.611
		C174.883,60.924,173.99,59.786,172.74,59.634z"/>
	<path display="inline" fill="#C3E86A" d="M188.072,37.855c-0.434-0.51-1.068-0.802-1.738-0.802h-70.572
		c-0.574,0-1.129,0.216-1.551,0.608L93.879,56.519H44.583c-1.09,0-2.028,0.772-2.239,1.842l-18.25,92.78
		c-0.132,0.668,0.043,1.36,0.476,1.889c0.434,0.525,1.08,0.832,1.762,0.832h141.75c1.119,0,2.072-0.812,2.254-1.916L188.586,39.7
		C188.693,39.041,188.506,38.365,188.072,37.855z"/>
	<g display="inline">
		<path fill="#C3E86A" d="M24.571,153.027c0.433,0.527,1.079,0.832,1.761,0.832h141.75c1.119,0,2.072-0.811,2.254-1.914
			l5.299-32.598L24.093,151.141C23.961,151.809,24.137,152.501,24.571,153.027z"/>
	</g>
</g>
<g>
	<defs>
		<rect id="SVGID_1_" x="31.273" y="34.5" width="132.227" height="133"/>
	</defs>
	<clipPath id="SVGID_2_">
		<use xlink:href="#SVGID_1_"  overflow="visible"/>
	</clipPath>
	<path clip-path="url(#SVGID_2_)" fill="#F1A0D3" d="M128.854,76.316c0,16.528-13.393,29.927-29.917,29.927
		c-16.525,0-29.924-13.399-29.924-29.927c0-16.532,13.398-29.929,29.924-29.929C115.461,46.387,128.854,59.784,128.854,76.316"/>
	<path clip-path="url(#SVGID_2_)" fill="#F1A0D3" d="M31.273,167.5c0,0,24.376-53.937,66.855-53.937
		c44.691,0,65.371,53.937,65.371,53.937H31.273z"/>
</g>
</svg>
